<?xml version="1.0" encoding="UTF-8"?><svg id="a" xmlns="http://www.w3.org/2000/svg" viewBox="0 0 699 154"><defs><style>.b{fill:#8b9dc3;}.c{fill:#3b5998;}</style></defs><path class="c" d="M209.49,110.94h13.02V47.71h-19.57l-13.99,43.48h-.18l-14.79-43.48h-19.57v63.23h13.02v-44.37h.18l15.5,44.37h10.72l15.5-44.81h.18v44.81Zm18.81,0h48v-11.69h-34.1v-15.5h30.64v-10.8h-30.64v-13.55h33.39v-11.69h-47.29v63.23Zm83.25-51.54h18.95v-11.69h-51.81v11.69h18.95v51.54h13.9V59.4Zm48.56,27.1h-16.38l8.24-23.2h.18l7.97,23.2Zm22.85,24.44l-23.65-63.23h-14.26l-24,63.23h14.08l4.96-14.08h23.64l4.78,14.08h14.44Z"/><polygon class="b" points="383.44 85.21 417.14 85.21 417.14 75.49 379.8 75.49 383.44 85.21"/><path class="c" d="M424.13,110.94h13.9V47.71h-13.9v63.23Zm51.14,0h12.58v-28.16c0-11.33-3.37-18.86-16.74-18.86-5.31,0-10.8,2.48-13.99,7.62h-.27v-6.38h-11.96v45.79h12.58v-24c0-9.3,2.92-13.11,9.74-13.11,5.84,0,8.06,3.72,8.06,11.25v25.86Zm29.55-34.36c0-3.72,4.16-4.25,7-4.25,4.52,0,8.24,1.33,8.59,6.2h11.96c-.97-11.25-10.18-14.61-20.19-14.61s-19.92,3.01-19.92,14.7c0,8.06,7.26,10.63,14.52,12.22,9.03,1.95,14.26,3.28,14.26,7.08,0,4.43-4.6,5.84-8.24,5.84-4.96,0-9.56-2.21-9.65-7.7h-11.96c.53,12.13,10.89,16.12,21.52,16.12s20.9-3.9,20.9-15.94c0-8.5-7.17-11.16-14.52-12.84-7.17-1.68-14.26-2.3-14.26-6.82m32.7-18.51h12.58v-10.36h-12.58v10.36Zm0,52.87h12.58v-45.78h-12.58v45.78Zm50.24-23.47c0,6.55-3.54,12.66-10.72,12.66-7.71,0-10.18-7.17-10.18-13.73s3.1-13.02,10.18-13.02c8.15,0,10.72,6.64,10.72,14.08m11.95,20.55v-42.86h-11.95v6.11h-.18c-3.01-5.31-7.62-7.35-13.64-7.35-12.84,0-19.66,10.8-19.66,22.67,0,12.58,5.85,23.02,19.57,23.02,5.49,0,10.98-2.3,13.73-7.08h.18v6.02c.09,6.55-3.1,11.33-10.1,11.33-4.43,0-8.24-1.59-9.39-6.29h-12.49c.62,10.45,11.16,14.7,20.19,14.7,21.08,0,23.73-12.75,23.73-20.28m36.52,2.92h12.58v-28.16c0-11.33-3.36-18.86-16.74-18.86-4.69,0-10.18,2.48-13.37,7.62h-.27v-23.82h-12.58v63.23h12.58v-24c0-9.3,2.92-13.11,9.74-13.11,5.84,0,8.06,3.72,8.06,11.25v25.86Zm33.79-14.7v-22.67h9.21v-8.41h-9.21v-13.73h-12.58v13.73h-7.62v8.41h7.62v27.01c0,9.12,6.73,10.89,14.43,10.89,2.48,0,5.22-.09,7.35-.44v-9.83c-1.33,.27-2.57,.35-3.9,.35-4.25,0-5.31-1.06-5.31-5.31"/><path class="b" d="M130.06,85.31c-3.04-2.81-6.96-4.12-10.82-3.93-2.45,.12-4.79-.98-6.18-2.99l-.46-.67c-1.41-2.05-1.55-4.66-.57-6.95,2.58-6.04,.99-13.43-4.79-17.78-5.18-3.9-12.57-3.9-17.76,0-5.78,4.35-7.37,11.75-4.79,17.78,.98,2.29,.85,4.9-.57,6.95l-.47,.68c-1.38,1.99-3.68,3.12-6.1,2.99-.53-.03-1.06-.03-1.6,0-2.42,.13-4.73-1-6.1-2.99l-.47-.68c-1.41-2.05-1.55-4.66-.57-6.95,2.58-6.04,.99-13.43-4.79-17.78-5.18-3.9-12.58-3.9-17.76,0-5.78,4.35-7.37,11.75-4.79,17.78,.98,2.29,.85,4.9-.57,6.95l-.46,.67c-1.39,2.01-3.73,3.11-6.18,2.99-3.86-.19-7.78,1.12-10.82,3.93-6.01,5.57-6.29,15.38-.59,21.27,5.79,5.98,15.34,6.04,21.2,.17,4.49-4.49,5.5-11.13,3.05-16.6-.98-2.18-.69-4.73,.67-6.7l.47-.69c1.38-1.99,3.68-3.12,6.1-2.99,.53,.03,1.06,.03,1.59,0,2.42-.13,4.73,1,6.1,2.99l.47,.68c1.41,2.05,1.55,4.66,.57,6.95-2.58,6.04-.99,13.43,4.79,17.78,5.18,3.9,12.58,3.9,17.76,0,5.78-4.35,7.37-11.75,4.79-17.78-.98-2.29-.85-4.9,.57-6.95l.47-.68c1.38-1.99,3.68-3.12,6.1-2.99,.53,.03,1.06,.03,1.59,0,2.42-.13,4.73,1,6.1,2.99l.47,.69c1.36,1.97,1.65,4.51,.67,6.7-2.45,5.47-1.44,12.11,3.05,16.6,5.86,5.86,15.41,5.81,21.2-.17,5.7-5.89,5.42-15.7-.59-21.27"/></svg>